<svg width="30" height="30" viewBox="0 0 30 30" fill="none" xmlns="http://www.w3.org/2000/svg">
<path d="M25.0573 7.69443C25.0339 7.69443 24.9989 7.69443 24.9638 7.69443C18.7773 7.07461 12.6024 6.84072 6.48606 7.46054L4.10033 7.69443C3.60916 7.74121 3.17645 7.39037 3.12967 6.89919C3.08289 6.40801 3.43374 5.987 3.91322 5.94022L6.29894 5.70633C12.5206 5.07481 18.824 5.3204 25.1392 5.94022C25.6187 5.987 25.9695 6.41971 25.9227 6.89919C25.8877 7.35529 25.5017 7.69443 25.0573 7.69443Z" fill="#EF1414"/>
<path d="M10.4402 6.51331C10.3935 6.51331 10.3467 6.51331 10.2882 6.50162C9.82041 6.41975 9.49296 5.96366 9.57482 5.49587L9.8321 3.96386C10.0192 2.84117 10.2765 1.28577 13.0013 1.28577H16.0653C18.8019 1.28577 19.0592 2.89964 19.2346 3.97555L19.4919 5.49587C19.5738 5.97535 19.2463 6.43145 18.7785 6.50162C18.299 6.58348 17.8429 6.25603 17.7728 5.78824L17.5155 4.26792C17.3518 3.25048 17.3167 3.05167 16.077 3.05167H13.013C11.7734 3.05167 11.75 3.2154 11.5746 4.25623L11.3056 5.77654C11.2355 6.20925 10.8612 6.51331 10.4402 6.51331Z" fill="#EF1414"/>
<path d="M18.2869 26.4295H10.7788C6.69738 26.4295 6.53366 24.1724 6.40502 22.3481L5.64486 10.5714C5.60977 10.0919 5.98401 9.67095 6.46349 9.63587C6.95467 9.61248 7.36398 9.97501 7.39907 10.4545L8.15922 22.2311C8.28787 24.0087 8.33465 24.6753 10.7788 24.6753H18.2869C20.7428 24.6753 20.7895 24.0087 20.9065 22.2311L21.6667 10.4545C21.7017 9.97501 22.1227 9.61248 22.6022 9.63587C23.0817 9.67095 23.4559 10.0803 23.4209 10.5714L22.6607 22.3481C22.5321 24.1724 22.3683 26.4295 18.2869 26.4295Z" fill="#EF1414"/>
<path d="M16.4739 19.9973H12.5795C12.1 19.9973 11.7024 19.5997 11.7024 19.1202C11.7024 18.6407 12.1 18.2431 12.5795 18.2431H16.4739C16.9534 18.2431 17.351 18.6407 17.351 19.1202C17.351 19.5997 16.9534 19.9973 16.4739 19.9973Z" fill="#EF1414"/>
<path d="M17.4562 15.3194H11.6088C11.1293 15.3194 10.7317 14.9218 10.7317 14.4423C10.7317 13.9628 11.1293 13.5652 11.6088 13.5652H17.4562C17.9356 13.5652 18.3333 13.9628 18.3333 14.4423C18.3333 14.9218 17.9356 15.3194 17.4562 15.3194Z" fill="#EF1414"/>
</svg>
