<svg width="30" height="30" viewBox="0 0 30 30" fill="none" xmlns="http://www.w3.org/2000/svg">
<path d="M17.4755 25.6176H11.3707C5.84588 25.6176 3.48535 23.2571 3.48535 17.7322V11.6274C3.48535 6.10259 5.84588 3.74207 11.3707 3.74207H13.4057C13.8228 3.74207 14.1688 4.088 14.1688 4.50517C14.1688 4.92233 13.8228 5.26827 13.4057 5.26827H11.3707C6.6802 5.26827 5.01155 6.93691 5.01155 11.6274V17.7322C5.01155 22.4228 6.6802 24.0914 11.3707 24.0914H17.4755C22.1661 24.0914 23.8347 22.4228 23.8347 17.7322V15.6973C23.8347 15.2801 24.1806 14.9342 24.5978 14.9342C25.015 14.9342 25.3609 15.2801 25.3609 15.6973V17.7322C25.3609 23.2571 23.0004 25.6176 17.4755 25.6176Z" fill="#4895EF"/>
<path d="M10.8612 20.4693C10.2406 20.4693 9.6708 20.2455 9.25364 19.8385C8.75508 19.3399 8.54141 18.6175 8.65333 17.8544L9.09084 14.7918C9.17224 14.2017 9.55888 13.4386 9.97604 13.0215L17.9936 5.00377C20.0184 2.97901 22.0737 2.97901 24.0984 5.00377C25.2075 6.11281 25.706 7.2422 25.6043 8.37159C25.5127 9.28731 25.0243 10.1827 24.0984 11.0984L16.0808 19.1161C15.6636 19.5332 14.9005 19.9199 14.3104 20.0013L11.2479 20.4388C11.1156 20.4693 10.9833 20.4693 10.8612 20.4693ZM19.0721 6.08228L11.0546 14.1C10.8612 14.2933 10.6374 14.741 10.5967 15.0055L10.1592 18.0681C10.1185 18.3632 10.1795 18.6073 10.3322 18.76C10.4848 18.9126 10.729 18.9736 11.024 18.9329L14.0866 18.4954C14.3511 18.4547 14.809 18.2309 14.9921 18.0376L23.0097 10.0199C23.6711 9.35853 24.017 8.7684 24.0679 8.21897C24.129 7.55761 23.783 6.85556 23.0097 6.07211C21.3818 4.44416 20.2626 4.90202 19.0721 6.08228Z" fill="#4895EF"/>
<path d="M22.4096 12.4717C22.3384 12.4717 22.2672 12.4615 22.2061 12.4412C19.5302 11.6882 17.4037 9.56174 16.6507 6.8858C16.5388 6.47882 16.7728 6.06166 17.1798 5.93956C17.5868 5.82764 18.004 6.06166 18.1159 6.46864C18.7264 8.63585 20.4459 10.3554 22.6131 10.9658C23.0201 11.0778 23.2541 11.5051 23.1422 11.9121C23.0506 12.258 22.7454 12.4717 22.4096 12.4717Z" fill="#4895EF"/>
</svg>
