<svg width="30" height="30" viewBox="0 0 30 30" fill="none" xmlns="http://www.w3.org/2000/svg">
<path d="M14.5199 12.705C14.7606 12.705 14.9914 12.8006 15.1616 12.9708C15.3318 13.141 15.4274 13.3718 15.4274 13.6125V19.0575C15.4274 19.2982 15.3318 19.529 15.1616 19.6992C14.9914 19.8694 14.7606 19.965 14.5199 19.965C14.2792 19.965 14.0484 19.8694 13.8782 19.6992C13.708 19.529 13.6124 19.2982 13.6124 19.0575V13.6125C13.6124 13.3718 13.708 13.141 13.8782 12.9708C14.0484 12.8006 14.2792 12.705 14.5199 12.705ZM14.5199 11.3438C14.6986 11.3438 14.8757 11.3085 15.0408 11.2401C15.206 11.1717 15.356 11.0715 15.4824 10.9451C15.6088 10.8187 15.7091 10.6686 15.7775 10.5034C15.8459 10.3383 15.8811 10.1613 15.8811 9.98251C15.8811 9.80374 15.8459 9.62673 15.7775 9.46158C15.7091 9.29642 15.6088 9.14636 15.4824 9.01996C15.356 8.89355 15.206 8.79328 15.0408 8.72487C14.8757 8.65646 14.6986 8.62126 14.5199 8.62126C14.1593 8.62126 13.8136 8.76448 13.5586 9.01942C13.3037 9.27437 13.1604 9.62015 13.1604 9.98069C13.1604 10.3412 13.3037 10.687 13.5586 10.942C13.8136 11.1969 14.1593 11.3401 14.5199 11.3401V11.3438ZM3.62988 14.52C3.62988 13.0899 3.91156 11.6738 4.45883 10.3526C5.00611 9.03135 5.80826 7.83084 6.81949 6.81961C7.83072 5.80838 9.03122 5.00623 10.3525 4.45896C11.6737 3.91168 13.0898 3.63 14.5199 3.63C15.95 3.63 17.3661 3.91168 18.6873 4.45896C20.0085 5.00623 21.209 5.80838 22.2203 6.81961C23.2315 7.83084 24.0337 9.03135 24.5809 10.3526C25.1282 11.6738 25.4099 13.0899 25.4099 14.52C25.4099 17.4082 24.2625 20.1781 22.2203 22.2204C20.178 24.2627 17.4081 25.41 14.5199 25.41C11.6317 25.41 8.86176 24.2627 6.81949 22.2204C4.77722 20.1781 3.62988 17.4082 3.62988 14.52ZM14.5199 5.44501C12.113 5.44501 9.80478 6.40112 8.10289 8.10301C6.401 9.8049 5.44488 12.1132 5.44488 14.52C5.44488 16.9268 6.401 19.2351 8.10289 20.937C9.80478 22.6389 12.113 23.595 14.5199 23.595C16.9267 23.595 19.235 22.6389 20.9369 20.937C22.6388 19.2351 23.5949 16.9268 23.5949 14.52C23.5949 12.1132 22.6388 9.8049 20.9369 8.10301C19.235 6.40112 16.9267 5.44501 14.5199 5.44501Z" fill="#1F1F1F"/>
</svg>
