<svg width="40" height="40" viewBox="0 0 40 40" fill="none" xmlns="http://www.w3.org/2000/svg">
<path d="M34.15 31.6667L24.6 22.1167C25.8833 20.3333 26.6667 18.1833 26.6667 15.8333C26.6667 9.85 21.8167 5 15.8333 5C9.85 5 5 9.85 5 15.8333C5 21.8167 9.85 26.6667 15.8333 26.6667C18.1833 26.6667 20.3333 25.8833 22.1167 24.6L31.6667 34.15L34.15 31.6667ZM8.33333 15.8333C8.33333 11.6833 11.6833 8.33333 15.8333 8.33333C19.9833 8.33333 23.3333 11.6833 23.3333 15.8333C23.3333 19.9833 19.9833 23.3333 15.8333 23.3333C11.6833 23.3333 8.33333 19.9833 8.33333 15.8333Z" fill="#444746"/>
</svg>
