<svg width="20" height="24" viewBox="0 0 20 24" fill="none" xmlns="http://www.w3.org/2000/svg">
<path d="M9.65869 3.66666C5.24269 3.66666 1.66669 7.25066 1.66669 11.6667C1.66669 16.0827 5.24269 19.6667 9.65869 19.6667C14.0827 19.6667 17.6667 16.0827 17.6667 11.6667C17.6667 7.25066 14.0827 3.66666 9.65869 3.66666ZM9.66669 18.0667C6.13069 18.0667 3.26669 15.2027 3.26669 11.6667C3.26669 8.13066 6.13069 5.26666 9.66669 5.26666C13.2027 5.26666 16.0667 8.13066 16.0667 11.6667C16.0667 15.2027 13.2027 18.0667 9.66669 18.0667Z" fill="#1F1F1F"/>
<path d="M10.4167 7.83334H9.16669V11.7793H4.50006V13H10.4167V7.83334Z" fill="#1F1F1F"/>
</svg>
