<svg xmlns="http://www.w3.org/2000/svg" width="20" height="24" viewBox="0 0 20 24" fill="none">
  <path d="M9.65869 3.66663C5.24269 3.66663 1.66669 7.25063 1.66669 11.6666C1.66669 16.0826 5.24269 19.6666 9.65869 19.6666C14.0827 19.6666 17.6667 16.0826 17.6667 11.6666C17.6667 7.25063 14.0827 3.66663 9.65869 3.66663ZM9.66669 18.0666C6.13069 18.0666 3.26669 15.2026 3.26669 11.6666C3.26669 8.13063 6.13069 5.26663 9.66669 5.26663C13.2027 5.26663 16.0667 8.13063 16.0667 11.6666C16.0667 15.2026 13.2027 18.0666 9.66669 18.0666Z" fill="#241E7B"/>
  <path d="M10.4167 7.83337H9.16669V11.7794H4.50006V13H10.4167V7.83337Z" fill="#241E7B"/>
</svg>